<svg width="232" height="321" viewBox="0 0 232 321" fill="none" xmlns="http://www.w3.org/2000/svg">
<g clip-path="url(#clip0_82_235)">
<path fill-rule="evenodd" clip-rule="evenodd" d="M174.334 125.527C176.403 126.69 178.12 127.484 179.738 128.026L182.118 128.824L179.88 129.961C178.36 130.734 176.915 131.719 175.461 132.973L174.34 133.941L173.798 132.561C173.087 130.748 172.741 128.685 172.77 126.43L172.793 124.661L174.334 125.527ZM74.9465 131.383C76.8828 134.886 79.2203 138.335 81.4809 141.67C86.47 149.031 91.6292 156.643 93.2177 165.745C93.3413 166.5 93.4296 168.205 93.4827 170.862L92.0039 170.258C87.0654 168.242 81.8258 166.742 76.7589 165.291C74.8004 164.73 72.7755 164.151 70.7907 163.548C69.9825 163.331 69.1787 163.078 68.401 162.833C66.5142 162.238 64.7317 161.676 62.8577 161.58L62.2872 161.551L62.0017 161.056C59.4198 156.572 61.3561 152.299 63.5733 148.306C64.9051 145.395 66.6181 142.66 68.2751 140.015C69.9925 137.273 71.7683 134.438 73.0658 131.471L73.918 129.523L74.9465 131.383ZM170.24 168.52C167.305 171.604 164.578 174.738 162.136 177.834L160.282 176.979C161.178 172.406 163.961 169.185 169.041 166.84L170.24 168.52ZM72.0445 237.414C72.3383 237.414 72.614 237.529 72.8205 237.736C73.03 237.946 73.145 238.23 73.1441 238.534L72.0445 238.53V237.414ZM194.188 313.661C195.912 310.694 196.166 306.035 193.581 303.509C194.451 298.054 192.743 291.958 188.961 287.614L188.952 287.627C183.336 279.192 182.924 276.186 187.027 266.757C194.359 266.475 201.912 266.392 209.072 264.673L208.804 263.068C209.069 262.997 210.423 262.641 210.713 262.566C210.674 262.865 210.473 264.227 210.477 264.5C210.812 264.867 211.62 265.208 211.771 264.486C216.275 245.176 220.305 226.248 224.685 206.967C229.269 187.506 238.487 156.38 215.922 145.655L216.388 143.661C217.634 143.662 218.135 142.3 218.706 140.375C221.252 133.491 216.302 126.741 211.672 122.483C205.344 116.129 199.506 109.073 193.859 102.253C177.75 82.6068 155.83 56.3902 127.812 60.8441L127.906 62.0014C123.523 62.5542 118.947 63.7167 114.509 62.907C99.3571 60.274 82.8729 66.2304 73.554 78.4603L73.2116 76.1809C73.1794 75.9658 73.1028 75.7669 72.7634 75.7669C72.3194 75.7511 72.0847 76.1155 71.9206 76.4516C55.8365 82.829 49.1738 103.587 44.034 117.815C43.3778 120.22 43.5628 120.932 43.6201 121.073L44.5534 121.631C34.8599 134.568 29.5331 150.128 24.9634 164.882C23.4531 168.816 23.2956 171.541 25.818 173.92C9.18575 183.946 -3.86545 199.571 3.51367 217.384C13.1443 234.717 38.6457 245.715 57.8001 255.671C65.4064 259.805 76.4695 262.006 83.4686 268.776C83.9362 269.469 84.6072 270.145 85.0138 270.089C88.2623 270.571 93.0972 250.216 92.3623 248.586C95.7914 249.816 99.6061 249.751 103.193 250.393C102.871 251.101 101.819 252.06 102.607 252.848C102.553 255.239 102.92 257.823 103.444 260.26C99.1397 259.567 99.2374 261.833 103.379 260.634C103.491 261.69 103.778 264.381 103.888 265.402C102.652 264.857 100.192 264.474 99.3303 265.327C99.6823 266.463 102.731 265.393 103.905 265.73C104.592 270.84 104.816 275.864 105.298 280.96C101.633 284.463 95.9092 285.29 92.6388 289.078C89.8679 291.961 90.2674 296.799 93.5182 299.118C91.5271 301.46 93.1206 305.349 96.0279 305.985C99.9885 306.912 104.129 305.629 108.034 304.552C114.525 302.407 121.324 299.064 128.816 294.332C131.781 292.48 133.988 289.57 135.037 286.135C142.639 262.632 144.67 246.662 141.082 238.646C139.035 237.094 136.752 238.052 134.862 237.204C133.961 236.8 133.149 236.257 132.494 234.331C142.355 233.359 156.732 235.165 164.637 230.424L164.359 229.83C165.089 229.363 166.693 227.407 167.303 226.779C166.203 240.052 165.319 253.668 164.882 266.895C163.432 269.342 162.2 271.874 160.848 274.7C159.908 275.626 158.263 277.214 159.229 278.264C159.229 278.264 151.112 297.332 148.631 306.97C146.269 307.07 145.312 311.084 145.402 313.749C145.761 318.601 151.967 319.115 157.407 319.591C161.13 319.983 164.958 320.186 168.728 320.186C175.541 320.191 192.576 319.72 194.188 313.661Z" fill="white"/>
<path fill-rule="evenodd" clip-rule="evenodd" d="M161.025 67.8877C149.461 60.1836 134.448 56.127 121.037 61.1715C120.877 61.2276 120.941 61.4607 121.107 61.4239C123.226 60.9577 125.379 60.6965 127.544 60.6072C123.156 61.1445 118.898 62.2988 114.455 61.5208C99.6136 59.0631 83.8756 64.1115 74.0152 75.6743C73.7602 73.9754 71.6547 74.0384 70.9683 75.2397C57.8548 79.871 50.4275 97.2696 45.4742 109.344C44.8923 111.496 40.8508 120.433 42.7916 121.593C33.5537 134.281 28.3559 149.305 23.7437 164.167L23.6118 164.529C22.5648 167.437 21.7659 170.729 23.9833 173.317C14.7848 178.956 6.27982 186.529 2.25931 196.792C-4.14413 211.93 4.01552 224.755 16.7377 232.957C29.346 242.11 43.0053 249.73 57.125 256.274C61.873 258.471 66.6805 260.534 71.5159 262.532L71.9971 262.729C75.7956 264.295 79.6285 266.136 82.4698 269.148C87.9947 277.232 93.0979 253.018 93.1541 249.643C95.7451 250.424 98.5985 250.442 101.273 250.849C100.933 251.433 100.907 252.192 101.32 252.814C101.314 254.79 101.523 256.781 101.908 258.738C97.8035 258.373 97.9456 262.524 102.225 261.566L102.439 263.573C100.485 262.966 96.3582 263.936 98.7755 266.271C100.041 266.897 101.39 266.32 102.74 266.386C103.321 270.973 103.543 275.563 103.968 280.17C100.302 283.365 94.8587 284.212 91.6039 288.047C88.7595 291.164 88.6888 296.041 91.9448 298.976C90.1956 301.97 92.3102 305.869 95.5448 306.656C99.714 307.649 104.08 306.326 108.104 305.208C115.42 302.794 122.344 299.144 128.858 295.049L129.141 294.871C132.365 292.857 134.698 289.722 135.806 286.092L136.043 285.357C139.981 273.099 146.983 249.056 141.73 237.7C139.255 234.95 135.265 238.152 133.823 234.913C143.129 234.183 158.123 235.807 165.705 230.477C164.96 241.199 163.856 251.914 163.9 262.667C164.089 264.081 163.136 264.966 163.519 266.393C162.135 268.765 160.94 271.237 159.754 273.712L159.679 273.782C158.448 274.951 156.866 277.322 158.486 278.712C152.974 286.801 149.984 296.348 147.54 305.737C144.942 306.334 143.96 311.18 144.121 313.496C144.85 319.72 152.218 319.76 157.059 320.286C159.887 320.584 162.724 320.77 165.566 320.847C171.317 321.003 177.075 320.698 182.779 319.947C187.425 319.54 192.561 318.323 194.876 313.815C196.741 310.58 197.033 305.724 194.452 302.821C195.206 297.26 193.438 291.464 189.982 287.08L189.877 286.948L189.886 286.944C189.965 286.909 189.958 286.778 189.635 286.713L189.599 286.706L189.443 286.465C184.366 278.583 183.733 276.422 187.5 267.432L190.924 267.31C197.267 267.077 203.677 266.742 209.816 265.163C210.686 265.888 212.215 265.804 212.557 264.381C217.022 245.243 221.12 226.016 225.474 206.85C229.999 186.679 239.751 156.059 216.153 144.363C218.563 144.363 219.1 141.467 219.686 139.639C221.834 132.537 217.102 125.974 212.152 121.363C194.777 103.896 181.705 81.8894 161.025 67.8877ZM194.16 304.959C194.486 314.363 187.38 316.618 179.382 316.858C174.397 317.333 169.376 317.478 164.373 317.282L162.016 317.145C158.08 316.913 154.114 316.623 150.283 315.724C147.76 315.204 147.128 312.945 148.039 310.736C148.433 310.911 148.899 310.923 149.263 310.667C149.67 310.382 149.966 310.079 150.19 309.721C163.151 315.497 179.46 314.865 192.021 308.219C193.631 308.14 193.84 306.215 194.16 304.959ZM162.652 275.195C167.363 272.341 176.903 271.101 181.454 274.692C181.142 276.496 181.871 278.165 182.555 279.773C180.478 279.276 162.419 276.839 164.97 281.285C166.398 282.438 168.342 281.644 169.992 281.488C174.419 281.12 178.876 281.237 183.29 281.739C183.674 282.819 183.823 284.031 184.301 285.05C179.831 283.573 175.155 282.866 170.465 282.613L170.204 282.6C168.157 282.491 165.761 282.037 164.236 283.712C162.937 285.491 165.82 286.715 167.306 286.541C173.633 286.351 179.972 286.586 186.293 286.858L186.571 287.318C191.037 294.723 191.999 297.639 190.194 306.521C190.204 306.512 190.215 306.505 190.224 306.496C190.231 306.977 190.384 307.409 190.712 307.732C177.09 312.159 164.403 311.907 150.867 307.516C152.847 297.56 156.774 288.156 159.695 278.476C160.466 278.043 160.694 277.088 161.272 276.457C161.855 276.407 162.434 275.945 162.652 275.195ZM130.009 235.023C135.944 239.226 133.264 244.193 131.623 249.899C129.225 258.288 127.382 266.834 125.33 275.312C124.121 282.842 119.366 289.373 112.526 292.759C109.449 294.383 106.074 295.433 102.624 295.865C101.292 296 99.8164 295.857 98.9244 297.053C98.4184 297.602 98.3626 298.503 98.9244 299.041C100.688 301.044 105.816 299.237 108.194 298.737C125.82 293.387 128.499 280.597 131.899 264.562C133.546 255.656 137.594 246.276 135.151 237.244C136.629 238.035 138.898 237.763 139.946 239.257C142.364 254.603 137.03 270.17 132.918 284.841C132.005 287.924 130.078 290.635 127.274 292.253C121.293 295.911 115.024 299.254 108.391 301.563L108.189 301.62C104.823 302.588 97.5509 305.197 94.9672 302.469C94.4282 301.671 94.4527 300.818 95.1317 300.288L95.4608 300.163C96.0928 299.918 96.8369 299.574 96.952 298.834L96.9588 298.783L96.9345 298.774C97.4839 297.765 96.4177 296.634 95.4627 296.387C94.1167 296.339 93.4907 295.441 93.0122 294.123C92.1539 287.672 101.199 285.948 104.197 281.534C104.515 283.145 106.991 282.838 106.979 281.213C107.076 276.277 106.005 271.296 105.272 266.426C106.4 266.378 107.6 266.835 108.699 266.587C108.861 265.571 105.691 264.505 104.819 264.169C104.638 263.328 104.448 262.49 104.245 261.656C111.295 262.083 108.02 259.818 103.567 259.043C103.429 258.57 103.307 258.084 103.196 257.603L103.142 257.364C102.86 256.16 102.711 255.022 102.662 253.846C105.78 255.277 109.287 256.145 112.664 255.417C118.768 253.997 121.931 246.577 119.481 241.008C120.039 239.033 118.944 236.933 117.955 235.267C121.973 235.253 125.993 235.142 130.009 235.023ZM189.679 286.802C189.732 286.834 189.781 286.869 189.829 286.908L189.877 286.948L189.865 286.951C189.807 286.963 189.723 286.93 189.672 286.807C189.683 286.818 189.683 286.813 189.679 286.802ZM189.308 286.678C189.404 286.681 189.486 286.688 189.557 286.699L189.599 286.706L189.612 286.727C189.637 286.764 189.652 286.78 189.67 286.806C189.569 286.723 189.431 286.685 189.308 286.678ZM182.023 280.796C182.351 280.84 182.679 280.879 183.01 280.921L183.074 281.097C182.724 280.992 182.374 280.892 182.023 280.796ZM167.436 266.523C173.299 267.121 179.209 266.752 185.075 267.42C183.925 269.011 183.104 270.772 182.416 272.631C177.599 268.074 169.87 269.468 164.074 271.146C164.464 270.005 164.823 268.853 165.145 267.692C166.012 267.832 167.002 267.344 167.436 266.523ZM24.4121 173.875C32.4275 182.055 44.5417 184.304 54.9092 187.915C57.4263 189.494 56.196 192.623 55.8752 194.999C55.2749 198.899 54.7984 202.818 54.4524 206.75C53.1717 205.267 49.8164 205.073 47.9387 204.47L47.6885 204.413C45.1837 203.838 42.5804 202.974 40.0246 203.534C38.9938 203.758 38.9239 205.187 39.743 205.695C41.8176 206.986 44.3559 207.023 46.7341 207.305L47.3423 207.378C49.4469 207.629 51.5679 207.858 53.6825 207.768C53.9485 207.81 54.2163 207.709 54.3843 207.528C54.1209 211.638 53.5927 215.807 53.7718 219.924C53.8696 220.655 54.1041 221.451 54.6223 221.993L54.6395 222.055C54.9326 223.095 55.8864 224.951 56.9848 223.577L57.1911 223.205C58.8041 220.29 60.3335 217.242 61.1133 213.987C61.3728 220.57 61.5828 227.15 61.845 233.732L61.8536 233.89C61.9204 235.007 62.1384 236.351 62.8636 237.21C62.7995 237.721 63.2566 238.019 63.6649 237.836L63.7191 237.861C64.1105 238.037 64.7404 238.199 64.9794 237.72C66.3568 234.494 67.8233 231.318 69.1674 228.083C69.0964 229.743 69.1765 231.407 69.1237 233.069C69.0972 234.965 68.7455 237.195 69.6487 238.949C70.4198 240.486 72.3407 240.888 73.3713 239.55C74.1972 238.273 74.6654 236.694 75.4169 235.34C77.5343 245.821 82.8961 230.415 83.8805 227.24C86.9064 229.012 90.0967 230.508 93.3958 231.705C92.4884 233.082 92.7079 234.954 92.4226 236.536C92.1655 238.895 91.9625 241.255 91.7595 243.62L91.6845 244.072C90.4487 251.467 88.6488 259.025 84.6871 265.462C81.3333 262.173 76.9328 260.233 72.6291 258.491C67.4469 256.351 62.3069 254.113 57.237 251.72C43.5325 245.266 30.3369 237.7 18.0365 228.843L17.6184 228.55C10.7827 223.732 3.6593 217.415 3.48436 208.426C2.89476 193.689 15.1983 183.636 24.4121 173.875ZM175.465 165.522C187.167 154.526 205.083 140.31 221.245 150.756C236.341 163.552 224.38 194.235 221.297 210.758C217.375 228.127 213.231 245.449 209.387 262.834C195.68 264.645 181.767 265.594 167.992 263.962C168.148 251.704 168.974 239.462 169.243 227.2C169.494 220.882 169.407 214.539 170.353 208.282C171.155 203.194 170.125 197.048 172.954 192.603C174.001 190.985 175.704 189.568 176.084 187.617C176.093 187.526 175.974 187.496 175.917 187.547C175.089 188.276 174.424 189.145 173.545 189.844L172.899 190.345C171.849 191.165 170.802 192.039 170.152 193.204C170.085 192.708 171.339 188.283 170.588 188.81L170.446 189.198C169.436 191.981 168.526 194.795 168.267 197.772C167.275 207.917 166.722 218.112 165.873 228.272C163.825 229.196 161.944 230.555 159.709 231.047C156.047 231.409 152.38 231.204 148.712 231.156L148.368 231.152C137.665 230.992 126.996 231.594 116.301 231.424C105.369 231.849 94.1944 228.98 84.8641 223.218C89.976 200.093 72.4244 183.6 64.3091 163.832C73.6573 166.194 82.9605 168.731 92.2828 171.219C91.0246 174.3 95.0936 183.031 96.6249 186.125C104.818 202.304 121.387 212.878 136.287 197.437C136.28 197.484 136.275 197.531 136.27 197.58C136.77 197.123 137.323 196.72 137.88 196.334C138.628 202.487 140.652 208.689 144.473 213.629L144.889 214.153C146.081 215.641 147.806 217.598 149.714 216.474C151.119 215.713 151.383 214.231 151.11 212.737C155.7 217.74 160.701 218.871 157.565 210.261L157.669 210.369C159.424 212.174 164.084 216.165 164.558 211.447C164.352 209.098 162.907 207.001 162.173 204.801C162.957 205.287 163.839 205.527 164.737 205.182C167.145 204.256 165.906 201.498 165.369 199.761C164.009 195.37 162.621 190.987 161.21 186.613C161.699 184.012 160.151 181.425 161.602 179.164C162.224 179.49 163.06 179.422 163.66 178.619C167.182 173.922 171.223 169.57 175.465 165.522ZM209.225 263.631C209.221 263.657 209.221 263.68 209.219 263.706C209.084 263.715 208.951 263.727 208.817 263.74C208.954 263.706 209.089 263.666 209.225 263.631ZM93.6286 246.745C95.7884 224.469 90.184 234.959 112.946 235.212C112.844 235.77 113.576 235.706 113.317 235.551C113.647 234.32 115.516 237.927 115.776 238.395C116.268 239.44 116.492 240.74 116.665 241.883C117.885 248.282 113.339 253.889 106.711 251.168C107.564 251.097 108.522 251.406 109.231 250.86C109.227 250.858 109.225 250.854 109.222 250.851C109.856 249.713 106.378 249.664 105.687 249.36C102.991 248.796 100.289 248.271 97.6101 247.638C96.3043 247.33 94.9672 246.846 93.6286 246.745ZM71.7451 238.138C71.9394 238.024 71.8398 238.397 71.7749 238.208C71.7661 238.183 71.7541 238.16 71.7451 238.138ZM47.235 119.195C56.9771 119.892 63.2843 124.711 70.1981 130.892C70.7143 131.339 71.2378 131.777 71.7731 132.201C68.7523 137.507 65.4954 142.672 62.3473 147.905L61.7573 148.889C60.8392 150.424 59.9426 151.986 59.3961 153.695C57.5341 159.597 64.0368 169.984 66.3998 175.778C77.7072 195.767 88.3286 209.644 78.0404 233.318C77.4881 231.824 78.7081 226.609 76.8834 226.406L76.9202 226.035C77.5034 220.017 77.5297 212.769 75.7095 207.455C76.7168 217.737 75.6249 228.514 71.7346 238.113C70.7168 229.013 72.0654 218.846 71.7523 209.498C71.7644 208.061 69.5945 208.077 69.533 209.498L69.459 211.912C69.2048 220.092 68.7655 228.657 64.0169 235.577C63.5596 225.043 65.4777 213.947 61.7925 203.848C61.4913 203.12 60.4064 203.177 60.3749 204.041C60.3072 207.479 58.8557 219.115 56.3514 221.134C55.6635 219.029 55.7336 216.726 55.8441 214.521C56.185 206.532 57.3352 198.735 58.747 190.858C59.0023 189.301 58.545 187.385 56.936 186.785C55.7406 185.645 54.0901 184.837 52.725 184.189C44.05 179.896 32.1157 180.723 26.2478 171.88L25.963 171.45C25.2789 170.413 24.6376 169.389 24.3491 168.145C25.1398 165.187 26.2766 162.303 27.242 159.398C28.105 156.832 28.9908 154.274 29.9199 151.731L30.2312 150.884C34.3789 139.542 39.6595 128.655 47.235 119.195ZM114.409 235.249C114.631 235.322 114.807 235.544 114.996 235.71L115.037 235.745L114.921 235.652C114.799 235.554 114.689 235.462 114.519 235.332L114.409 235.249ZM165.787 229.406L165.734 230.093C165.398 230.162 165.069 230.247 164.74 230.331C165.122 230.055 165.477 229.748 165.787 229.406ZM116.154 213.887C116.193 213.752 116 213.673 115.928 213.792C113.097 218.781 107.523 220.767 102.157 221.558C101.243 221.772 101.355 223.035 102.157 223.302C105.156 224.297 108.62 222.956 111.075 221.171C113.592 219.343 115.309 216.873 116.154 213.887ZM62.1756 211.039C62.7069 214.879 62.6586 218.796 62.7043 222.673C62.5293 218.796 62.384 214.916 62.1756 211.039ZM140.344 217.802C139.787 217.995 139.211 218.121 138.645 218.17C139.246 218.458 139.934 218.314 140.344 217.802ZM184 93.614C192.511 103.265 199.962 113.83 209.116 122.9C214.479 127.755 219.554 134.39 215.371 141.697C214.489 142.046 214.334 143.347 215.094 143.959C214.913 143.936 213.745 143.369 214.008 143.833C216.352 144.836 218.414 146.289 220.191 148.047C209.123 139.893 194.448 146.421 184.795 153.728C180.031 157.214 175.602 161.056 171.454 165.191C169.97 165.457 168.435 166.251 167.198 166.871C158.665 170.976 157.328 176.524 158.032 185.391C160.593 190.28 161.804 195.871 163.589 201.112C165.424 205.187 161.814 202.441 161.296 200.663C160.04 199.097 159.433 197.016 158.663 195.195L158.608 195.066C158.389 194.545 157.92 194.158 157.316 194.331C156.832 194.47 156.382 195.071 156.57 195.591L156.957 196.588C158.829 201.406 160.763 206.25 162.253 211.188C157.217 208.166 154.723 202.448 152.078 197.398C151.352 196.056 149.397 197.239 150.052 198.585C150.659 199.827 151.278 201.066 151.935 202.284C153.65 205.945 154.893 209.807 155.923 213.713C150.262 210.332 148.289 203.442 146.66 197.628C146.56 195.969 144.172 196.296 144.418 197.924C145.024 201.156 145.948 204.34 147.393 207.3L147.775 209.539C148.03 211.031 148.282 212.524 148.522 214.018C148.386 213.952 148.239 213.943 148.097 213.978C143.081 208.919 141.073 201.94 139.322 195.232C140.155 192.395 139.136 189.494 139.252 186.569C138.809 182.824 140.015 179.334 141.685 175.991C142.686 165.647 152.634 161.16 159.569 155.08C168.064 146.673 172.53 133.8 184.469 129.634C185.711 129.713 186.907 129.446 188.069 129.045C188.12 129.031 188.129 128.943 188.069 128.934C186.887 128.741 185.706 128.439 184.522 128.223C184.202 127.18 182.926 127.053 181.966 127.519C171.642 122.987 163.086 115.018 154.882 107.437C162.892 100.015 173.263 95.4082 184 93.614ZM136.495 198.814C136.324 199.005 136.174 199.212 136.061 199.438C136.031 199.496 136.034 199.565 136.025 199.629C136.172 199.353 136.328 199.079 136.495 198.814ZM169.245 167.444C166.393 170.441 163.655 173.564 161.077 176.831C162.002 172.116 165.029 169.39 169.245 167.444ZM73.7928 131.542C79.9851 142.745 89.6812 152.586 91.9483 165.576C92.1303 166.687 92.1427 167.813 92.1655 168.934C85.2528 166.111 77.9753 164.353 70.844 162.186C68.141 161.463 65.516 160.325 62.6763 160.18C60.3357 156.116 62.2155 152.137 64.2759 148.431C66.9602 142.546 71.2063 137.456 73.7928 131.542ZM173.585 126.093C175.376 127.1 177.222 128.02 179.17 128.673C177.493 129.525 175.96 130.601 174.541 131.826C173.828 130.007 173.561 128.037 173.585 126.093ZM128.06 61.5133C128.99 69.7204 128.944 78.189 126.768 86.1989C123.523 98.6819 111.508 110.352 97.9128 107.905C84.1959 105.034 77.4538 90.8065 74.626 78.2962C81.8493 69.1175 93.1573 63.3758 104.812 62.9136C112.389 62.6034 120.956 65.05 128.06 61.5133Z" fill="black"/>
<path fill-rule="evenodd" clip-rule="evenodd" d="M96.2806 1.89746C88.62 1.89746 79.4285 5.61725 78.647 5.69164L78.6259 5.69277C78.2148 5.69277 76.6082 6.91871 73.8063 9.37058L76.8411 15.2994L76.5955 15.5343C75.4203 16.6629 74.4169 17.6916 73.625 18.5025C67.1586 25.1238 65.9964 51.1207 67.5203 60.1867C69.0442 69.2527 71.8668 78.1239 85.0075 78.1239C98.1482 78.1239 112.767 70.2099 115.019 67.7454C116.521 66.1024 118.207 65.3153 120.079 65.384C120.156 65.2868 120.232 65.1899 120.308 65.0932L120.583 65.0542C123.173 64.6784 125.029 64.1727 126.15 63.5372C128.341 62.2958 130.749 55.7697 130.749 54.332C130.749 52.9088 134.344 42.5552 134.416 41.4595L134.417 41.4292C134.417 40.5132 139.114 36.3028 139.114 34.9656C139.114 33.6285 140.061 33.7096 139.114 28.9977L138.839 27.6135C137.832 22.5966 135.86 14.2895 128.341 10.6798C120.079 6.71312 104.019 1.89746 96.2806 1.89746Z" fill="white"/>
<path fill-rule="evenodd" clip-rule="evenodd" d="M129.617 10.4934C125.496 6.1126 102.102 -0.663525 90.2663 0.772852L89.9113 0.818903C88.9668 0.938871 88.0359 1.12054 87.1173 1.36733C84.1479 2.06194 81.0806 3.11372 78.6272 4.87056C76.5788 6.30777 70.1174 8.65485 72.0218 12.4146C71.3156 13.7547 71.0521 15.4102 71.5293 16.7301C71.5894 17.1859 71.7297 17.6058 71.9092 18.0411C70.4005 20.271 69.2061 22.7927 68.2391 25.1912C66.5495 31.2275 65.498 37.5093 65.344 43.668C64.8317 55.3686 66.1126 69.345 76.2869 76.9112C82.4332 81.7056 92.061 81.8667 98.9681 75.9221C99.3601 75.4575 101.203 74.2037 100.588 73.9838C100.405 74.1775 100.217 74.366 100.025 74.5511C100.034 74.5305 100.036 74.5099 100.032 74.4877L100.212 74.3242C100.552 74.0097 100.992 73.5535 100.491 73.6428C100.469 73.6685 100.445 73.6907 100.421 73.7165C100.315 73.7802 100.235 73.8354 100.172 73.8842L100.14 73.9099L100.15 73.8995C100.439 73.5914 100.612 73.2771 100.18 73.4778L100.123 73.5057C99.9312 73.7079 99.7363 73.9015 99.5379 74.0901C99.5411 74.0678 99.5379 74.0455 99.5257 74.0215L99.7108 73.8424C99.8914 73.6651 99.8638 73.6644 99.7755 73.5211C100.159 72.9821 99.4427 73.3022 99.3924 73.5125C98.944 73.4062 98.5502 74.2495 98.2614 74.3523C85.5997 84.1022 67.2252 75.451 67.5227 48.2826L67.5273 47.751C67.6143 39.0637 68.3442 30.1348 71.9316 22.2709C72.2805 21.5133 72.6708 20.7764 73.1001 20.0634C73.3961 19.5287 73.7126 19.0077 74.0531 18.5004C75.0064 18.4233 75.9475 18.2485 76.8747 17.9777C77.1931 17.8972 77.5079 17.8081 77.8226 17.7035C82.4219 17.9548 86.9188 18.2281 91.531 18.4872L92.9716 18.5771C96.8786 18.8287 100.919 19.2317 104.072 21.6522C107.166 23.8558 107.18 28.2012 109.828 30.6206C113.604 33.1877 113.632 35.5026 114.359 39.2857C114.305 42.1375 112.331 46.281 115.954 47.4812C115.343 48.3541 116.195 47.9347 116.262 47.6286C116.268 47.6303 116.275 47.632 116.28 47.632C115.736 48.6461 116.536 48.0075 116.607 47.6817C116.65 47.6697 116.693 47.6389 116.736 47.596C116.187 48.4845 117.074 47.8624 117.021 47.7006C118.082 46.0682 120.264 45.8147 121.802 46.2473C121.821 46.3055 121.889 46.3107 121.932 46.2798C128.473 47.6996 126.785 61.2621 120.082 59.951C119.795 59.8924 119.802 60.0304 119.745 60.0436C119.9 59.6364 119.464 59.8021 119.468 59.8876L119.442 59.8863C119.421 59.8844 119.429 59.8821 119.414 59.8876C119.563 59.0548 118.721 60.2614 118.787 60.3109C118.761 60.2955 118.732 60.2869 118.707 60.2835L118.736 60.2044C118.876 59.8313 118.864 59.9864 118.863 59.7728C118.968 59.5087 118.975 59.6242 118.951 59.4521C118.581 59.1656 118.472 60.0348 118.349 60.0984C118.56 59.8036 118.393 59.5628 118.193 59.7229C116.684 62.9034 114.734 65.8918 112.213 68.2459C111.938 68.4636 111.659 68.6778 111.37 68.88C110.298 69.8153 108.654 70.4167 107.65 71.2451C107.65 71.2588 107.657 71.276 107.667 71.2931L107.644 71.3139L107.621 71.336L107.272 71.5039C107.169 71.5913 107.077 71.689 106.995 71.797C106.907 71.8981 106.83 72.0095 106.765 72.1277C106.733 72.2717 106.805 72.3317 106.941 72.27C107.002 72.2494 107.061 72.2254 107.121 72.2031C107.118 72.2083 107.116 72.2117 107.113 72.2151C107.093 72.2449 106.96 72.5535 107.113 72.5033L107.131 72.4962C107.215 72.4654 107.299 72.4311 107.381 72.3985C107.284 72.5202 107.195 72.6522 107.116 72.7636C107.032 72.851 106.981 72.9538 106.96 73.0703C106.964 73.1355 107 73.1629 107.065 73.1543C107.164 73.1217 107.261 73.0875 107.359 73.0515L107.331 73.1046C107.262 73.2406 107.164 73.4687 107.338 73.3925C107.487 73.3463 107.631 73.2931 107.775 73.2349C107.787 73.2589 107.811 73.2674 107.859 73.2451C108.315 73.0823 108.757 72.8835 109.18 72.6487C109.551 72.378 109.926 72.1123 110.299 71.8432C110.649 71.6324 110.988 71.3977 111.312 71.1337C113.475 69.7339 115.37 67.9556 116.872 65.9751C119.386 68.1553 124.411 66.0724 127.52 64.3658C130.269 62.8405 131.35 60.0202 131.629 56.9796C132.21 52.8859 135.55 51.4847 135.318 42.5026C135.323 42.5043 135.328 42.5043 135.335 42.5043C135.456 42.4683 135.574 42.4203 135.686 42.3586C135.8 42.3038 135.908 42.2386 136.009 42.1598L136.134 41.9867C136.199 41.9507 136.257 41.913 136.302 41.8753L136.325 41.9051C136.398 41.9934 136.349 41.8606 136.344 41.8342L136.561 41.5386C137.076 40.835 137.64 40.0456 138.1 39.4142L138.115 39.4399C138.125 39.4593 138.13 39.4732 138.126 39.4794C139.22 37.9047 140.249 36.0027 140.535 34.1614C140.872 32.743 140.74 31.2815 140.446 29.9676C139.183 25.3669 135.047 14.9557 129.617 10.4934ZM99.9215 74.1197L99.9901 74.0586L99.9298 74.1342C99.8982 74.1733 99.8659 74.2085 99.8132 74.2443C99.8166 74.2323 99.8166 74.2203 99.8151 74.2066C99.85 74.1799 99.8857 74.1507 99.9215 74.1197ZM90.3187 3.08458C98.3449 2.39339 106.239 4.16446 113.898 6.30829L114.427 6.46039C118.782 7.70506 123.387 8.82507 127.067 11.4892C132.209 15.4339 134.864 21.7092 137.181 27.5032C139.205 31.8079 138.17 36.662 135.121 39.6679C134.804 36.6809 134.263 33.7812 133.418 30.9049C133.241 30.4556 133.375 30.3083 132.995 30.2497C132.42 38.001 135.249 43.7279 129.652 52.9144C127.223 57.249 130.034 60.4206 123.177 62.7015L122.991 62.7726C121.562 63.3126 120.002 63.7388 118.603 63.4369L118.728 63.2327C118.856 63.0223 118.895 62.9202 118.709 62.8302C118.714 62.82 118.72 62.8097 118.727 62.7977C118.878 62.5132 119.023 62.2253 119.162 61.9339C119.218 61.9528 119.275 61.9665 119.333 61.9819C119.295 62.0522 119.29 62.1224 119.396 62.1464C119.773 62.276 120.161 62.3279 120.557 62.3036L120.642 62.2972C121.09 62.2698 121.372 62.1881 121.624 62.1121C121.708 62.0984 121.792 62.0847 121.874 62.0676C122.686 61.8873 123.545 61.4287 124.102 60.9742C130.443 57.3669 129.787 45.0875 121.971 43.9268C121.811 36.1953 118.14 23.1518 112.047 15.7845C106.539 9.0079 91.5032 6.07075 81.0425 7.10641C80.89 7.15697 80.7376 7.20804 80.5851 7.25963C78.9712 7.40325 77.4332 8.1234 75.8181 8.45794C76.9777 7.58748 78.2932 7.0077 79.6481 6.51497C82.3479 4.86096 85.4428 3.966 88.4329 3.3348C89.0523 3.18227 89.6803 3.09829 90.3187 3.08458ZM122.329 50.1376C121.909 49.909 121.957 50.1297 121.86 50.0656C118.838 49.8187 115.578 52.4695 113.888 54.6793C114.022 54.8181 114.383 54.4068 114.446 54.3416C114.455 54.3502 114.465 54.3571 114.475 54.3605L114.428 54.427C113.743 55.4114 115.101 54.253 115.228 54.0143C115.25 54.0263 115.273 54.0332 115.298 54.028C115.191 54.1338 114.862 54.4095 114.806 54.6056L114.718 54.6782C113.897 55.383 113.965 55.9132 114.898 54.9123C114.876 54.9586 114.867 55.0015 114.883 55.0357L114.85 55.0572C114.392 55.3783 114.014 56.2734 114.973 55.3545C114.874 56.0257 115.923 54.7285 115.957 54.7375C117.774 53.3091 120.449 51.9198 122.728 51.7332L122.806 51.7242C123.224 51.6704 123.422 51.5461 123.275 51.2722C123.79 51.1495 123.67 50.8955 123.426 50.9037C123.789 50.6645 123.462 50.4357 123.251 50.525C123.396 50.1231 122.815 50.3908 122.762 50.3347C122.46 49.8687 122.379 50.2574 122.329 50.1376ZM128.665 25.2272C127.213 24.6945 122.925 26.2891 123.268 28.4008C123.472 28.8857 124.145 29.1635 124.619 28.8898L125.236 28.4744C126.311 27.7536 127.28 27.1215 128.434 26.4928C129.061 26.1808 129.332 25.5182 128.665 25.2272ZM120.405 22.089L120.966 21.7235C123.992 19.74 128.269 16.7345 120.683 19.844C119.819 20.2154 118.67 20.4351 118.198 21.2598C117.457 22.7798 119.407 22.882 120.405 22.089ZM120.065 13.1892C120.308 12.2663 117.287 13.3493 116.407 13.6348L116.273 13.6855C115.418 14.0048 114.437 14.301 113.925 15.0405C113.326 16.0623 114.539 16.274 115.291 15.8124C116.832 14.8037 118.522 14.0426 120.065 13.1892ZM112.382 8.89013C114.083 7.03005 109.532 8.81194 108.85 9.30657L108.83 9.32116C108.322 9.67986 108.425 10.4525 108.903 10.6794C110.263 10.7052 111.263 9.57 112.382 8.89013ZM104.644 6.85219C107.347 4.90614 103.786 5.83177 102.549 6.59443C101.706 7.33908 102.575 8.59617 104.644 6.85219Z" fill="black"/>
<path fill-rule="evenodd" clip-rule="evenodd" d="M89.377 57.3543C88.4198 55.7772 86.3796 59.6405 86.1628 60.3048C85.9708 60.8932 85.8441 61.496 85.7797 62.1058C85.0376 62.2724 84.267 62.2727 83.5066 62.1267C82.3765 61.9095 81.6857 61.301 80.7035 60.7785C80.0251 60.4175 79.1702 60.8409 78.8174 61.4397C78.4024 62.1445 78.6668 62.876 79.2125 63.4015C80.2476 64.3978 82.284 64.6267 83.6351 64.3621C84.4091 64.2106 85.1186 63.9198 85.7451 63.4973C85.7493 63.5761 85.752 63.655 85.7582 63.7337L85.7702 63.8703C85.874 64.9754 86.1772 66.3649 87.0342 67.084C88.4397 68.2635 90.1743 65.9951 88.8086 64.8169L88.7663 64.7815C87.9174 64.0946 87.7322 62.2513 87.7779 61.2361C87.8079 60.5735 87.9284 59.9023 88.1373 59.2712L88.1802 59.1456C88.2431 58.9673 88.9287 57.2762 89.1764 57.4916L89.1882 57.5037C89.2904 57.6259 89.4555 57.4836 89.377 57.3543ZM81.7347 48.4552C80.4426 49.2419 78.4738 51.0762 79.8638 53.0264C81.5 54.746 83.8556 52.7744 85.0165 51.8827C86.0929 51.1916 87.3023 52.969 86.3036 53.7759C77.9153 59.9963 74.5112 48.6609 81.0811 47.5303C81.8045 47.4057 82.0732 48.2118 81.7347 48.4552ZM95.5319 41.184C94.2691 40.9596 92.9756 41.2741 91.9306 42.0142L91.8514 42.0712C90.8447 42.8087 89.7184 44.1035 90.2961 45.3746C90.5279 45.885 91.2222 45.965 91.6628 45.7337C92.3964 45.3484 92.5293 44.4005 93.1838 43.8759C93.7206 43.4459 94.4433 43.185 95.1346 43.2479C96.7586 43.3957 97.7575 45 98.2619 46.3825C98.3264 46.5594 98.5856 46.6281 98.6869 46.4382C99.8763 44.2116 97.771 41.5819 95.5319 41.184ZM75.3053 40.3437C72.8864 40.144 70.0551 42.6558 70.692 45.2132C70.9974 46.4403 72.8147 46.4052 73.1378 45.2132C73.3155 44.5573 73.2978 43.977 73.7692 43.4324C74.1582 42.9826 74.7111 42.7215 75.3053 42.7616C75.9603 42.8058 76.5645 43.1336 77.0236 43.5945C77.4382 44.0106 77.6861 44.6195 78.1156 44.9878C78.2213 45.0783 78.3628 45.0841 78.4672 44.9878C79.2064 44.3052 78.7627 42.8841 78.2941 42.1715C77.6233 41.1518 76.5311 40.445 75.3053 40.3437ZM100.138 36.6483C98.5865 35.2725 95.7668 33.9437 93.6744 34.6209C92.4713 35.0101 91.9469 36.9517 93.2899 37.5671C94.8451 38.2797 96.6381 37.9897 98.221 38.7284C98.8857 39.0388 99.511 39.4266 99.9738 39.9954C100.338 40.4438 100.709 41.0337 101.237 41.2921C101.375 41.3601 101.563 41.3618 101.674 41.2357C102.83 39.926 101.148 37.5431 100.138 36.6483ZM77.9725 34.5526C77.0134 34.283 75.9495 34.2885 74.9752 34.4578C74.0013 34.6271 73.0125 35.0314 72.2173 35.6211L72.125 35.6902C71.257 36.3454 70.2211 37.2986 70.2767 38.4592C70.323 39.4284 71.3409 40.0839 72.2197 39.576C72.9362 39.1617 73.2732 38.3319 73.8798 37.7794C74.3803 37.3233 74.9682 36.9637 75.5955 36.7118C76.2922 36.4319 76.9902 36.3008 77.7379 36.2883C78.3137 36.2787 78.8929 36.4679 79.4579 36.5284C79.4113 36.6241 79.8579 36.5795 80.1139 36.4947C80.3035 36.4138 80.3045 36.1737 80.2388 36.0179C79.9128 35.2461 78.7269 34.7644 77.9725 34.5526Z" fill="black"/>
</g>
<defs>
<clipPath id="clip0_82_235">
<rect width="232" height="321" fill="white" transform="matrix(-1 0 0 1 232 0)"/>
</clipPath>
</defs>
</svg>
