<svg width="318" height="339" viewBox="0 0 318 339" fill="none" xmlns="http://www.w3.org/2000/svg">
<path d="M231.223 38.3775C253.74 55.6305 274.173 71.2596 287.725 91.7602C301.486 112.058 308.158 137.227 313.162 165.238C318.166 193.248 321.502 224.101 309.826 247.646C298.15 271.191 271.462 287.632 243.941 305.291C216.628 323.153 188.481 342.03 163.044 337.97C137.399 333.911 114.256 306.915 87.1513 288.85C60.2552 270.785 29.6062 262.057 14.386 242.572C-0.834296 222.883 -0.834302 192.639 1.25067 163.411C3.12714 134.385 6.88008 106.172 20.8494 84.6561C35.0271 62.9376 59.2128 47.7144 84.2324 31.8823C109.252 15.8471 134.897 -0.796918 159.708 0.420939C184.728 1.6388 208.913 20.9215 231.223 38.3775Z" fill="#265645"/>
</svg>
